<svg width="16" height="16" version="1.1" xmlns="http://www.w3.org/2000/svg">
 <defs>
  <style id="current-color-scheme" type="text/css">.ColorScheme-Text { color:#666666; } .ColorScheme-Highlight { color:#4285f4; }</style>
 </defs>
 <path class="ColorScheme-Text" d="m2 2s-1 0-1 1v9c0 1 1 1 1 1h2l1 1h5v-2h-4l-1-1h-2v-7h10v6h2v-7c0-1-1-1-1-1z" fill="#dfdfdf" opacity=".3"/>
 <path class="ColorScheme-Text" d="m11 11v1c0 0.28 0.1 0.54 0.281 0.72l0.782 0.78-0.782 0.78c-0.181 0.18-0.281 0.44-0.281 0.72v1h1c0.276 0 0.538-0.1 0.719-0.28l0.781-0.78 0.781 0.78c0.181 0.18 0.443 0.28 0.719 0.28h1v-1c0-0.28-0.1-0.54-0.281-0.72l-0.781-0.78 0.781-0.78c0.181-0.18 0.281-0.44 0.281-0.72v-1h-1c-0.276 0-0.538 0.1-0.719 0.28l-0.781 0.78-0.781-0.78c-0.181-0.18-0.443-0.28-0.719-0.28z" fill="#dfdfdf"/>
</svg>
